<svg viewBox="-945 -210 100 100" xmlns="http://www.w3.org/2000/svg">
    <g>
        <circle fill="#CAC5C0" cx="-895" cy="-160" r="50"></circle>
        <path fill="#0D0F0F" d="M-922-157.572c0-9.787,2.061-18.813,6.191-27.072c5.117-10.236,12.123-15.355,21.012-15.355 c8.797,0,15.666,4.359,20.605,13.064c4.127,7.186,6.191,15.537,6.191,25.051c0,9.881-2.064,18.814-6.191,26.803 C-879.223-125.023-886.227-120-895.203-120c-8.531,0-15.305-4.307-20.336-12.926C-919.847-140.287-922-148.502-922-157.572z M-910.691-162.016c0,12.926,1.93,22.984,5.795,30.168c2.691,5.025,6.146,7.541,10.367,7.541c10.146,0,15.221-10.506,15.221-31.518 c0-9.244-0.809-17.059-2.422-23.434c-2.785-10.504-7.498-15.76-14.145-15.76c-9.879,0-14.816,10.15-14.816,30.443V-162.016z"></path>
    </g>
</svg>
