<svg viewBox="-945 -105.002 100 100" xmlns="http://www.w3.org/2000/svg">
    <g>
        <circle fill="#CAC5C0" cx="-895" cy="-55.002" r="50"></circle>
        <path fill="#0D0F0F" d="M-909.694-86.367v50.439c0,5.998,2.567,8.998,7.693,8.998h1.305v3.42h-26.866v-3.42h1.727 c4.931,0,7.4-3,7.4-8.998v-33.08c0-6.08-2.155-9.123-6.467-9.123h-2.66v-3.424h1.016c5.238,0,9.969-1.604,14.191-4.813 L-909.694-86.367L-909.694-86.367z M-899.934-53.039c0-7.857,1.646-15.082,4.94-21.668C-890.852-82.9-885.189-87-878.012-87 c6.931,0,12.422,3.508,16.476,10.516c3.296,5.748,4.945,12.381,4.945,19.898c0,7.859-1.648,15.039-4.945,21.545 C-865.677-27.012-871.293-23-878.389-23c-6.842,0-12.293-3.465-16.352-10.395C-898.205-39.223-899.934-45.771-899.934-53.039z M-890.812-56.715c0,6.68,0.718,12.676,2.156,17.996c2.197,8.195,5.785,12.295,10.771,12.295c8.111,0,12.165-8.447,12.165-25.346 c0-20.869-4.394-31.301-13.182-31.301c-7.941,0-11.912,8.105-11.912,24.328L-890.812-56.715L-890.812-56.715z"></path>
    </g>
</svg>
