<svg viewBox="-735 -105.002 100 100" xmlns="http://www.w3.org/2000/svg">
    <g>
        <circle fill="#CAC5C0" cx="-685" cy="-55.002" r="50"></circle>
        <path fill="#0D0F0F" d="M-699.37-85.785v49.18c0,5.875,2.428,8.816,7.277,8.816h1.278v3.445H-717v-3.445h1.533 c4.938,0,7.406-2.941,7.406-8.816v-32.32c0-5.955-2.043-8.939-6.128-8.939h-2.682v-3.322h1.019c5.109,0,9.709-1.531,13.795-4.598 L-699.37-85.785L-699.37-85.785z M-648.405-39.418l-4.471,15.203h-37.429v-3.32c1.793-2.043,5.749-6.133,11.882-12.266 c3.659-3.66,7.324-7.578,10.988-11.748c1.788-2.049,3.191-3.748,4.215-5.115c2.126-3.232,3.191-6.465,3.191-9.703 c0-3.238-0.981-6.092-2.938-8.561c-1.959-2.471-4.559-3.705-7.791-3.705c-6.731,0-12.012,4.598-15.843,13.799l-3.321-1.279 c4.601-12.775,11.752-19.164,21.461-19.164c4.767,0,8.857,1.621,12.262,4.855c3.404,3.238,5.109,7.281,5.109,12.137 c0,6.215-3.534,12.262-10.598,18.141l-7.282,5.873c-4.688,3.92-8.561,7.625-11.628,11.111c-0.254,0.262-0.681,0.729-1.273,1.41 h19.544c2.979,0,5.192-0.557,6.643-1.664c1.445-1.102,2.766-3.107,3.956-6.004H-648.405z"></path>
    </g>
</svg>
