<svg viewBox="-630 -105.002 100 100" xmlns="http://www.w3.org/2000/svg">
    <g>
        <circle fill="#CAC5C0" cx="-580" cy="-55.002" r="50"></circle>
        <path fill="#0D0F0F" d="M-592.033-85.211v48.543c0,5.707,2.428,8.555,7.282,8.555h1.149v3.322h-25.802v-3.322h1.663 c4.938,0,7.406-2.848,7.406-8.555v-31.811c0-5.873-2.089-8.814-6.258-8.814h-2.558v-3.316h1.024c5.021,0,9.538-1.535,13.54-4.602 H-592.033z M-570.316-53.02l-1.533-2.813l1.153-0.641c3.831-2.379,7.387-4.785,10.666-7.215c3.274-2.426,4.917-5.17,4.917-8.238 c0-2.129-0.811-3.898-2.427-5.301c-1.617-1.408-3.41-2.109-5.364-2.109c-4.943,0-10.136,2.982-15.588,8.945l-2.553-1.918 c5.619-8.516,12.517-12.777,20.692-12.777c3.576,0,6.602,0.895,9.07,2.684c2.896,1.965,4.346,4.645,4.346,8.051 c0,2.387-1.024,4.725-3.067,7.021c-1.195,1.279-3.238,3.025-6.133,5.24l-1.149,1.023c0.51-0.082,1.149-0.129,1.918-0.129 c3.748,0,6.81,1.43,9.195,4.277c2.386,2.852,3.576,6.113,3.576,9.771c0,6.475-2.724,11.84-8.177,16.096 c-4.938,4.086-10.687,6.135-17.24,6.135c-6.051,0-10.775-1.279-14.18-3.836l1.788-2.553c4.002,1.871,7.661,2.813,10.982,2.813 c4.771,0,9.029-1.574,12.776-4.73c3.748-3.148,5.619-7.068,5.619-11.752c0-3.15-0.936-5.83-2.807-8.045 c-1.877-2.215-4.346-3.322-7.412-3.322C-563.97-56.342-566.995-55.234-570.316-53.02z"></path>
    </g>
</svg>
