<svg viewBox="-420 -105 100 100" xmlns="http://www.w3.org/2000/svg">
    <g>
        <path fill="#CAC5C0" d="M-320-55.002C-320-27.387-342.387-5-370.002-5C-397.615-5-420-27.387-420-55.002 C-420-82.615-397.615-105-370.002-105C-342.387-105-320-82.615-320-55.002z"></path>
        <path fill="#0D0F0F" d="M-385.33-86.871v50.84c0,6.045,2.516,9.07,7.537,9.07h1.277v3.445h-27.078v-3.445h1.787 c5.109,0,7.666-3.025,7.666-9.07v-33.344c0-6.129-2.172-9.195-6.518-9.195h-2.682v-3.449h1.023c5.281,0,10.047-1.617,14.305-4.852 H-385.33z M-367.445-85.598h23.121c2.984,0,4.771-0.336,5.369-1.02h3.322l-1.918,8.688h-28.229l-2.682,12.516 c3.998-1.617,7.578-2.428,10.729-2.428c6.133,0,11.305,2.049,15.52,6.135c4.215,4.084,6.32,9.193,6.32,15.328 c0,7.152-2.723,12.898-8.17,17.246c-5.115,4-11.291,6.004-18.525,6.004c-4.258,0-8.43-0.641-12.516-1.918l1.273-3.191 c3.404,0.934,6.43,1.402,9.07,1.402c5.281,0,9.902-1.742,13.861-5.234c3.961-3.492,5.936-7.84,5.936-13.031 c0-4.512-1.465-8.219-4.402-11.113c-2.941-2.895-6.621-4.344-11.051-4.344c-4.172,0-8.045,1.449-11.625,4.344l-2.168-0.383 L-367.445-85.598z"></path>
    </g>
</svg>
