<svg viewBox="-630 -210.002 100 100" xmlns="http://www.w3.org/2000/svg">
    <g>
        <circle fill="#CAC5C0" cx="-580" cy="-160.002" r="50"></circle>
        <path fill="#0D0F0F" d="M-590.439-157.438l-2.018-3.771l1.337-0.807c5.174-3.145,9.903-6.33,14.189-9.563 c4.284-3.232,6.427-6.915,6.427-11.048c0-2.778-1.029-5.112-3.085-6.998c-2.061-1.892-4.472-2.834-7.244-2.834 c-6.439,0-13.234,4.001-20.392,11.991l-3.354-2.559c7.453-11.316,16.566-16.974,27.341-16.974c4.757,0,8.795,1.168,12.122,3.503 c3.771,2.607,5.655,6.153,5.655,10.642c0,3.229-1.349,6.374-4.039,9.426c-1.528,1.798-4.226,4.132-8.083,7.004l-1.616,1.213 c0.718-0.089,1.572-0.134,2.56-0.134c4.937,0,8.998,1.887,12.188,5.657c3.188,3.771,4.783,8.17,4.783,13.196 c0,8.532-3.595,15.667-10.774,21.416c-6.647,5.387-14.325,8.077-23.032,8.077c-7.991,0-14.276-1.748-18.858-5.249l2.429-3.371 c5.387,2.608,10.279,3.907,14.681,3.907c6.373,0,12.051-2.109,17.032-6.33c4.988-4.22,7.475-9.469,7.475-15.755 c0-4.132-1.255-7.655-3.77-10.576c-2.516-2.915-5.793-4.374-9.832-4.374C-582.001-161.747-586.04-160.312-590.439-157.438z"></path>
    </g>
</svg>
