<svg viewBox="-420 -210.002 100 100" xmlns="http://www.w3.org/2000/svg">
    <g>
        <circle fill="#CAC5C0" cx="-370" cy="-160.002" r="50"></circle>
        <path fill="#0D0F0F" d="M-385.043-198.648h28.941c3.754,0,5.988-0.45,6.703-1.352h4.156l-2.422,10.925h-35.314l-3.408,15.789 c5.127-2.07,9.668-3.104,13.625-3.104c7.729,0,14.25,2.587,19.559,7.758c5.305,5.171,7.961,11.622,7.961,19.357 c0,8.996-3.465,16.237-10.394,21.722c-6.385,5.039-14.162,7.553-23.338,7.553c-5.395,0-10.66-0.808-15.785-2.426l1.617-4.046 c4.32,1.169,8.141,1.751,11.469,1.751c6.654,0,12.477-2.18,17.473-6.544c4.99-4.358,7.488-9.826,7.488-16.392 c0-5.665-1.844-10.32-5.533-13.959c-3.689-3.646-8.365-5.468-14.033-5.468c-5.213,0-10.07,1.8-14.568,5.396l-2.701-0.538 L-385.043-198.648z"></path>
    </g>
</svg>
