<svg viewBox="-315 -210.002 100 100" xmlns="http://www.w3.org/2000/svg">
    <g>
        <circle fill="#CAC5C0" cx="-265" cy="-160.002" r="50"></circle>
        <path fill="#0D0F0F" d="M-278.42-165.325c5.934-5.577,11.91-8.364,17.939-8.364c6.564,0,11.828,2.606,15.787,7.821 c3.682,4.77,5.529,10.521,5.529,17.27c0,7.376-2.158,13.849-6.475,19.425c-4.768,6.114-10.703,9.174-17.807,9.174 c-8.547,0-15.381-3.69-20.504-11.063c-4.59-6.477-6.883-14.167-6.883-23.071c0-9.44,2.607-18.141,7.824-26.101 c5.213-7.958,12.184-13.602,20.906-16.928c4.947-1.888,10.168-2.839,15.65-2.839v4.184c-11.691,0.631-20.414,5.308-26.174,14.031 C-275.586-177.285-277.523-171.803-278.42-165.325z M-279.232-157.233c-0.086,1.618-0.133,3.238-0.133,4.857 c0,6.203,1.078,11.96,3.236,17.269c2.785,6.922,6.883,10.385,12.279,10.385c4.674,0,8.18-2.381,10.52-7.151 c1.797-3.684,2.697-8.135,2.697-13.355c0-5.571-0.857-10.342-2.563-14.299c-2.34-5.396-5.936-8.092-10.793-8.092 C-269.922-167.62-275.006-164.155-279.232-157.233z"></path>
    </g>
</svg>
