<svg viewBox="-210 -210.002 100 100" xmlns="http://www.w3.org/2000/svg">
    <g>
        <circle fill="#CAC5C0" cx="-160" cy="-160.002" r="50"></circle>
        <path fill="#0D0F0F" d="M-156.506-120h-11.643v-1.238c0-7.396,2.328-16.659,6.98-27.808c7.035-16.799,13.52-29.673,19.453-38.624 l0.822-1.232h-27.256c-3.93,0-6.92,0.819-8.975,2.463c-2.059,1.645-3.582,4.387-4.586,8.222h-4.52l4.926-21.782h2.881 c1.734,0.914,4.742,1.371,9.041,1.371h35.609v6.165c-1.275,1.829-2.918,4.75-4.926,8.768c-3.838,7.485-7.352,16.208-10.553,26.163 C-153.996-142.83-156.416-130.323-156.506-120z"></path>
    </g>
</svg>
