<svg viewBox="-105 -210.002 100 100" xmlns="http://www.w3.org/2000/svg">
    <g>
        <circle fill="#CAC5C0" cx="-55" cy="-160.002" r="50"></circle>
        <path fill="#0D0F0F" d="M-64.035-160.537l-1.746-1.211c-5.119-3.502-8.492-6.33-10.107-8.489c-2.066-2.691-3.096-5.83-3.096-9.426 c0-6.105,2.557-11.087,7.678-14.949c4.758-3.59,10.281-5.388,16.568-5.388c5.922,0,11.18,1.573,15.756,4.713 c5.203,3.503,7.813,8.127,7.813,13.876c0,7.004-4.898,12.66-14.682,16.967c11.131,5.388,16.699,12.884,16.699,22.492 c0,6.914-2.646,12.389-7.949,16.434C-41.854-121.836-47.83-120-55.01-120c-6.734,0-12.525-1.703-17.377-5.119 c-5.568-3.856-8.348-8.976-8.348-15.349c0-6.373,2.963-11.63,8.889-15.761C-70.23-157.303-67.623-158.739-64.035-160.537z M-59.463-158.625c-8.08,3.677-12.111,9.466-12.111,17.361c0,5.113,1.635,9.218,4.916,12.314c3.277,3.097,7.475,4.643,12.594,4.643 c4.574,0,8.461-1.232,11.646-3.695c3.186-2.464,4.781-5.891,4.781-10.28c0-6.626-4.367-12.001-13.098-16.122L-59.463-158.625z M-50.432-166.598c7.088-3.141,10.641-7.854,10.641-14.139c0-4.313-1.506-7.766-4.51-10.375c-3.012-2.603-6.715-3.906-11.113-3.906 c-3.684,0-6.869,0.991-9.563,2.964c-2.965,2.154-4.443,5.03-4.443,8.62c0,4.4,2.063,7.948,6.195,10.643 c0.805,0.537,4.396,2.286,10.775,5.25L-50.432-166.598z"></path>
    </g>
</svg>
