<svg viewBox="0 -210.002 100 100" xmlns="http://www.w3.org/2000/svg">
    <g>
        <circle fill="#CAC5C0" cx="50" cy="-160.002" r="50"></circle>
        <path fill="#0D0F0F" d="M63.402-154.476c-5.922,5.567-11.898,8.353-17.91,8.353c-6.555,0-11.809-2.604-15.758-7.814 c-3.684-4.758-5.523-10.507-5.523-17.241c0-7.272,2.152-13.777,6.461-19.526C35.344-196.903,41.227-200,48.32-200 c8.622,0,15.489,3.728,20.605,11.181c4.582,6.554,6.867,14.319,6.867,23.302c0,12.746-4.224,23.498-12.655,32.257 c-8.441,8.752-18.993,13.174-31.653,13.261v-4.175c3.859-0.176,6.953-0.626,9.297-1.344 C53.703-129.469,61.25-139.119,63.402-154.476z M64.215-162.558c0.086-1.706,0.129-3.322,0.129-4.846 c0-6.285-1.074-12.034-3.23-17.24c-2.875-6.916-7-10.374-12.386-10.374c-4.676,0-8.125,2.385-10.375,7.141 c-1.797,3.683-2.691,8.126-2.691,13.334c0,5.566,0.852,10.324,2.559,14.275c2.332,5.387,5.926,8.083,10.777,8.083 C54.918-152.185,59.988-155.643,64.215-162.558z"></path>
    </g>
</svg>
