<svg viewBox="-840 0 100 100" xmlns="http://www.w3.org/2000/svg">
    <g>
        <path fill="#CAC5C0" d="M-740,49.998C-740,77.613-762.383,100-790,100c-27.613,0-50-22.387-50-50.002C-840,22.385-817.613,0-790,0 C-762.383,0-740,22.385-740,49.998z"></path>
    </g>
    <g>
        <path fill="#0D0F0F" d="M-783.359,80v-3.297c4.703-0.521,7.059-1.887,7.059-4.082c0-1.582-0.629-3.164-1.883-4.746l-13.008-16.01 l-10.273,12.111c-2.57,2.973-3.863,5.432-3.863,7.354c0,2.976,2.354,4.771,7.07,5.387V80h-25.051v-3.287 c3.172-0.609,5.867-1.752,8.102-3.416c1.539-1.223,3.637-3.371,6.285-6.438l15.449-17.915l-17.867-21.66 c-2.315-2.797-4.121-4.633-5.401-5.51c-1.724-1.225-4.121-2.012-7.203-2.361V16h29.539v3.285c-4.453,0.877-6.676,2.234-6.676,4.074 c0,1.23,0.594,2.586,1.793,4.072l11.816,14.322l9.508-11.691c1.711-2.104,2.57-3.941,2.57-5.52c0-2.629-2.105-4.34-6.301-5.129V16 h23.512v3.291c-2.055,0.439-3.473,0.834-4.23,1.188c-2.57,1.229-6.496,4.869-11.797,10.92c-0.852,0.969-4.453,5.393-10.789,13.285 l18.977,23.363c4.113,5.078,8.305,7.971,12.586,8.666V80H-783.359z"></path>
    </g>
</svg>
