<svg viewBox="-315 -0.002 100 100" xmlns="http://www.w3.org/2000/svg">
    <g>
        <circle fill="#BAB1AB" cx="-265" cy="49.998" r="50"></circle>
        <path fill="#0D0F0F" d="M-224.305,48.619c0,5.518-2.008,9.281-6.02,11.287c-1.172,0.586-4.85,1.379-11.037,2.383 c-4.012,0.67-6.018,2.217-6.018,4.639v10.158c0,0.422,0.125,1.715,0.375,3.889l0.377,4.014c0,1.255-0.293,3.306-0.879,6.146 c-1.588,0.334-3.428,0.709-5.518,1.132c-0.67-2.511-1.004-4.224-1.004-5.146c0-0.416,0.105-1.045,0.313-1.882 c0.207-0.834,0.316-1.461,0.316-1.883c0-0.58-0.52-2.213-1.559-4.887h-1.945c-0.258,0.418-0.344,0.961-0.26,1.629 c0.334,1.422,0.459,2.633,0.377,3.637c-1.422,1.004-3.387,2.341-5.895,4.013c-0.586-0.166-0.793-0.25-0.629-0.25v-8.904 c-0.164-0.416-0.584-0.581-1.254-0.502h-1.504l-1.504,11.787c-1.174,0.084-2.592,0.084-4.264,0 c-0.588-2.758-1.631-6.853-3.135-12.289h-1.004c-0.922,2.929-1.422,4.519-1.506,4.769c0,0.334,0.104,0.981,0.314,1.942 c0.207,0.962,0.313,1.609,0.313,1.943c0,0.25-0.084,0.877-0.25,1.881l-0.377,3.01c-0.168,0.166-0.377,0.25-0.627,0.25 c-2.508,0-4.182-0.627-5.016-1.879c-0.836-1.256-1.172-3.012-1.004-5.271l1.004-15.047c0-0.252,0.082-0.586,0.25-1.004 c0.164-0.418,0.25-0.711,0.25-0.877c0-0.67-0.711-2.008-2.131-4.014c-0.248-0.082-1.549-0.377-3.887-0.879 c-1.424-0.334-4.225-0.918-8.402-1.756c-5.771-1.084-8.654-5.725-8.654-13.92c0-12.207,5.018-22.365,15.051-30.475 c0.414,2.258,1.127,5.266,2.129,9.029c0.754,0.17,2.385,0.545,4.891,1.129c0.504,0.168,3.053,1.088,7.652,2.76 c-2.344-1.422-5.393-3.719-9.156-6.898c-1.422-1.672-2.133-4.471-2.133-8.4c0-0.92,1.59-2.008,4.768-3.264 c2.84-1.17,4.975-1.836,6.396-2.006c4.514-0.582,7.984-0.879,10.41-0.879c10.449,0,18.891,2.678,25.328,8.029 c-2.088,2.426-5.684,5.014-10.783,7.773c2.008,0.084,4.934-0.707,8.779-2.383c3.844-1.67,5.475-2.508,4.891-2.508 c0.668,0,2.008,1.34,4.014,4.014c1.504,2.006,2.715,3.807,3.637,5.391c2.674,4.768,4.471,9.908,5.393,15.426 c0,1.926,0.041,3.305,0.125,4.139v1.004H-224.305z M-272.336,50.877c0-3.594-1.568-7.002-4.703-10.223 c-3.137-3.219-6.502-4.826-10.096-4.826c-3.178,0-5.977,1.348-8.402,4.039c-2.426,2.693-3.637,5.682-3.637,8.963 c0,2.859,1.379,4.713,4.139,5.553c1.756,0.506,4.219,0.801,7.398,0.883h6.898C-275.141,55.35-272.336,53.887-272.336,50.877z M-258.668,66.43v-3.889c-0.584-1.086-1.17-2.215-1.754-3.387c-0.502-1.674-1.422-4.014-2.76-7.025l-1.381,14.674 c0,1.172-0.25,1.756-0.752,1.756c-0.334,0-0.584-0.082-0.752-0.248c-0.586-8.863-0.879-12.709-0.879-11.541v-4.387 c-0.168-0.254-0.375-0.379-0.625-0.379c-2.844,2.93-4.264,7.652-4.264,14.172c0,3.596,0.33,5.811,1.002,6.648 c0.67-0.166,1.422-0.459,2.258-0.877c0.334-0.168,1.295-0.252,2.887-0.252c1.584,0,3.51,0.502,5.766,1.504 C-259.086,73.199-258.668,70.943-258.668,66.43z M-230.324,48.955c0-3.367-1.254-6.375-3.762-9.025 c-2.51-2.648-5.395-3.975-8.652-3.975c-3.512,0-6.795,1.607-9.846,4.826c-3.053,3.219-4.578,6.584-4.578,10.096 c0,2.928,1.42,4.389,4.264,4.389h14.422C-233.043,55.184-230.324,53.08-230.324,48.955z"></path>
    </g>
</svg>
