<svg viewBox="-105 0 100 100" xmlns="http://www.w3.org/2000/svg">
    <g>
        <path fill="#A3C095" d="M-5,49.998C-5,77.613-27.385,100-55.002,100C-82.615,100-105,77.613-105,49.998 C-105,22.385-82.615,0-55.002,0C-27.385,0-5,22.385-5,49.998z"></path>
        <path fill="#0D0F0F" d="M-11.238,56.225c0,1.668-0.645,3.164-1.936,4.498c-1.289,1.332-2.77,1.998-4.436,1.998 c-2.662,0-4.623-1.25-5.869-3.748l-5.871-0.25c-1.252,0-3.709,0.543-7.371,1.625c-3.914,1.082-6.164,1.957-6.746,2.623 c-0.916,0.998-1.664,3.332-2.248,6.996c-0.502,2.998-0.748,5.205-0.748,6.621c0,2.246,0.352,3.893,1.061,4.934 s2.166,1.916,4.371,2.623c2.205,0.707,3.561,1.104,4.061,1.187c0.332,0,0.873-0.041,1.625-0.125h1.498c1.08,0,2.205,0.17,3.373,0.5 c1.666,0.5,2.375,1.166,2.125,2c-1.168-0.166-3.207,0.084-6.121,0.75l3.496,1.748c0,1-1.416,1.498-4.246,1.498 c-0.752,0-1.771-0.166-3.063-0.498c-1.291-0.336-2.145-0.5-2.559-0.5h-1.625c-0.082,0.832-0.334,2.08-0.75,3.746 c-1.418-0.084-3.08-0.918-4.996-2.498c-1.918-1.58-3.123-2.373-3.621-2.373c-0.502,0-1.211,0.793-2.125,2.373 c-0.918,1.58-1.375,2.664-1.375,3.248c-1.082-0.584-1.996-1.668-2.75-3.248c-0.332-1.084-0.707-2.166-1.121-3.248 c-0.832,0.084-2.375,1.834-4.621,5.248h-0.627c-0.166-0.252-0.795-2-1.873-5.248c-2.582-0.832-4.996-1.248-7.246-1.248 c-1.082,0-2.748,0.25-4.996,0.748l-3.496-0.248c0.498-0.5,1.955-1.457,4.371-2.873c2.83-1.666,4.996-2.5,6.496-2.5 c0.246,0,0.578,0.043,1,0.125c0.414,0.086,0.75,0.125,1,0.125c0.578,0,1.518-0.312,2.809-0.938c1.291-0.623,2.039-1.186,2.246-1.684 c0.211-0.504,0.316-1.793,0.316-3.875c0-4.746-1.25-8.285-3.75-10.617c-2.168-2.082-5.746-3.58-10.744-4.498 c-1.332,4.746-5.08,7.123-11.24,7.123c-2,0-3.998-1.207-5.996-3.623c-1.996-2.416-2.996-4.623-2.996-6.621 c0-3.082,1.287-5.621,3.869-7.623c-2.08-2.162-3.121-4.369-3.121-6.617c0-2.084,0.643-3.914,1.936-5.5 c1.291-1.578,2.977-2.496,5.059-2.748c-0.166-2.662,0.707-4.496,2.623-5.496c-0.916-0.914-1.373-2.537-1.373-4.869 c0-2.748,0.916-5.039,2.748-6.871c1.83-1.832,4.121-2.75,6.869-2.75c3,0,5.457,1.045,7.371,3.125 c2.416-8.244,7.621-12.367,15.613-12.367c4.164,0,7.828,1.666,10.994,4.998c1.166,1.248,1.748,1.916,1.748,1.996 c-1,0-0.498-0.188,1.5-0.561c1.996-0.375,3.453-0.563,4.373-0.563c3.246,0,6.119,1.207,8.619,3.623 c2.164,2.166,3.664,4.912,4.498,8.244c0.58,0.084,1.498,0.332,2.748,0.748c1.83,0.92,2.748,2.498,2.748,4.748 c0,0.418-0.336,1.209-1,2.373c5.328,2.998,7.994,7.162,7.994,12.492c0,1.498-0.582,3.584-1.748,6.247 C-12.318,51.977-11.238,53.811-11.238,56.225z M-62.705,61.721v-1.623c0-1.914-0.936-3.664-2.809-5.246 c-1.875-1.582-3.77-2.373-5.684-2.373c-2.334,0-4.496,0.541-6.496,1.621C-73.281,53.852-68.283,56.393-62.705,61.721z M-64.951,46.232c-1.25-1.418-2.332-2.875-3.25-4.373c-3.498,0.916-5.246,1.957-5.246,3.121c1-0.08,2.457,0.105,4.371,0.564 C-67.162,46.003-65.785,46.232-64.951,46.232z M-57.33,42.359v-5.496c-2-0.332-3.211-0.5-3.623-0.5v1.873L-57.33,42.359z M-41.092,38.861c-1-0.416-2.875-1.25-5.621-2.498v10.742C-42.801,44.855-40.928,42.107-41.092,38.861z M-34.225,53.602 l-2.746-3.373c-1.664,1.167-3.352,2.354-5.061,3.561c-1.709,1.207-3.186,2.563-4.432,4.06 C-42.717,55.848-38.635,54.436-34.225,53.602z"></path>
    </g>
</svg>
