<svg viewBox="-525 0 100 100" xmlns="http://www.w3.org/2000/svg">
    <g>
        <circle fill="#F8F6D8" cx="-475" cy="50" r="50"></circle>
        <path fill="#0D0F0F" d="M-427.309,57.064c-6.561-3.699-10.768-5.551-12.617-5.551c-1.344,0-2.395,1.032-3.154,3.092 c-0.758,2.063-2.27,3.09-4.541,3.09c-0.926,0-2.818-0.336-5.678-1.008c-1.598,2.44-2.398,3.996-2.398,4.668 c0,0.926,0.689,2.016,2.064,3.281c1.375,1.262,2.535,1.891,3.482,1.891c0.602,0,1.416-0.125,2.449-0.379 c1.031-0.25,1.721-0.377,2.064-0.377c1.033,0,1.547,1.893,1.547,5.678c0,3.617-0.84,9.168-2.523,16.654 c-2.188-8.58-4.5-12.871-6.938-12.871c-0.338,0-1.031,0.252-2.082,0.76c-1.053,0.502-1.83,0.754-2.334,0.754 c-2.438,0-4.625-2.227-6.561-6.688c-3.869,0.59-5.805,2.567-5.805,5.934c0,1.684,0.777,3.027,2.336,4.035 c1.553,1.008,2.334,1.727,2.334,2.145c0,2.273-3.324,5.764-9.969,10.473c-3.531,2.523-5.973,4.289-7.316,5.297 c1.174-1.512,2.352-3.487,3.533-5.928c1.344-2.775,2.018-4.92,2.018-6.436c0-0.84-0.967-2.02-2.902-3.533 c-1.936-1.512-2.9-3.111-2.9-4.793c0-1.428,0.502-3.193,1.512-5.299c-1.094-1.262-2.395-1.895-3.91-1.895 c-3.365,0-5.045,1.096-5.045,3.28c0-1.514,0-0.379,0,3.406c0.082,2.776-2.02,4.164-6.311,4.164c-3.279,0-8.791-0.759-16.527-2.271 c8.748-2.188,13.121-4.711,13.121-7.57c0,0.336-0.168-0.672-0.504-3.028c-0.338-2.604,1.514-4.961,5.551-7.063 c-0.758-3.867-2.773-5.806-6.057-5.806c-0.504,0-1.432,0.884-2.775,2.647c-1.346,1.771-2.607,2.652-3.783,2.652 c-2.02,0-4.629-2.186-7.822-6.563c-1.516-2.184-3.83-5.424-6.941-9.715c1.934,1.012,3.869,2.02,5.805,3.031 c2.523,1.176,4.541,1.766,6.057,1.766c1.178,0,2.334-1.031,3.469-3.092c1.135-2.061,2.629-3.092,4.479-3.092 c0.254,0,1.936,0.504,5.047,1.516c1.596-2.439,2.398-4.248,2.398-5.426c0-1.01-0.611-2.166-1.83-3.471 c-1.221-1.303-2.334-1.955-3.344-1.955c-0.422,0-1.072,0.125-1.957,0.379c-0.881,0.252-1.533,0.379-1.953,0.379 c-1.516,0-2.273-1.893-2.273-5.678c0-1.01,0.969-6.77,2.904-17.285c-0.086,1.26,0.461,3.617,1.639,7.064 c1.43,4.207,3.111,6.309,5.049,6.309c0.334,0,1.008-0.252,2.018-0.758c1.008-0.504,1.807-0.754,2.396-0.754 c1.934,0,3.531,1.094,4.795,3.277l1.893,3.406c1.766,0,3.238-0.629,4.414-1.891c1.178-1.262,1.768-2.777,1.768-4.543 c0-1.85-0.777-3.26-2.334-4.227c-1.559-0.967-2.336-1.703-2.336-2.207c0-1.768,2.777-4.752,8.328-8.958 c4.457-3.363,7.359-5.34,8.707-5.93c-3.617,4.879-5.426,8.451-5.426,10.724c0,1.178,0.713,2.441,2.145,3.785 c1.766,1.598,2.775,2.734,3.027,3.406c0.84,1.938,0.756,4.586-0.252,7.949c2.271,1.6,3.994,2.396,5.174,2.396 c2.436,0,3.658-1.264,3.658-3.785c0-0.252-0.105-1.051-0.314-2.396c-0.213-1.344-0.273-2.102-0.191-2.271 c0.336-1.178,2.65-1.768,6.939-1.768c2.691,0,8.283,0.758,16.781,2.273c-1.852,0.504-4.627,1.26-8.326,2.27 c-3.365,1.01-5.049,2.145-5.049,3.406c0,0.59,0.209,1.598,0.631,3.027c0.42,1.432,0.633,2.48,0.633,3.156 c0,1.176-0.758,2.27-2.271,3.277l-4.291,3.031c1.01,1.852,1.682,2.945,2.02,3.279c0.84,1.008,1.975,1.514,3.406,1.514 c1.01,0,1.934-0.883,2.775-2.648c0.84-1.768,2.188-2.65,4.037-2.65c2.27,0,4.838,2.104,7.697,6.311 C-433.156,48.697-430.674,52.27-427.309,57.064z M-455.316,49.748c0-5.381-1.979-10.051-5.932-14.006 c-3.953-3.953-8.621-5.93-14.004-5.93c-5.469,0-10.18,1.957-14.131,5.869c-3.953,3.91-5.973,8.6-6.055,14.066 c-0.086,5.383,1.912,10.03,5.992,13.938c4.08,3.912,8.811,5.869,14.193,5.869c5.719,0,10.492-1.873,14.318-5.615 C-457.105,60.199-455.234,55.469-455.316,49.748z M-457.209,49.748c0,5.131-1.725,9.381-5.174,12.74 c-3.451,3.367-7.74,5.049-12.869,5.049c-4.963,0-9.211-1.723-12.742-5.174c-3.531-3.445-5.299-7.652-5.299-12.615 c0-4.877,1.785-9.064,5.359-12.553c3.578-3.49,7.803-5.238,12.682-5.238c4.877,0,9.104,1.766,12.68,5.301 C-458.998,40.791-457.209,44.953-457.209,49.748z"></path>
    </g>
</svg>
