<svg viewBox="-420 105.001 100 99.999" xmlns="http://www.w3.org/2000/svg">
    <g>
        <path fill="#A3C095" d="M-334.651,119.637c9.053,9.051,14.651,21.551,14.651,35.36c0,27.616-22.387,50.003-50,50.003 c-13.807,0-26.305-5.596-35.354-14.646"></path>
        <path fill="#BAB1AB" d="M-405.354,190.354c-9.05-9.047-14.646-21.549-14.646-35.356c0-27.613,22.387-49.997,50-49.997 c13.802,0,26.301,5.594,35.349,14.637"></path>
    </g>
    <path fill="#0D0F0F" d="M-366.743,133.111c0,2.701-0.982,4.543-2.947,5.525c-0.574,0.287-2.374,0.678-5.404,1.166 c-1.963,0.329-2.945,1.088-2.945,2.271v4.973c0,0.209,0.062,0.842,0.184,1.906l0.185,1.965c0,0.613-0.144,1.617-0.431,3.008 c-0.776,0.163-1.678,0.348-2.7,0.555c-0.328-1.229-0.491-2.069-0.491-2.52c0-0.203,0.05-0.512,0.152-0.921 c0.102-0.408,0.153-0.716,0.153-0.921c0-0.284-0.253-1.084-0.762-2.393h-0.953c-0.125,0.203-0.167,0.469-0.127,0.795 c0.164,0.696,0.225,1.289,0.186,1.781c-0.697,0.491-1.657,1.146-2.886,1.965c-0.288-0.082-0.39-0.123-0.308-0.123v-4.359 c-0.082-0.202-0.286-0.285-0.614-0.245h-0.737l-0.736,5.771c-0.572,0.041-1.269,0.041-2.086,0c-0.287-1.35-0.8-3.354-1.535-6.015 h-0.492c-0.45,1.433-0.695,2.21-0.737,2.333c0,0.163,0.052,0.48,0.155,0.951c0.101,0.471,0.152,0.787,0.152,0.951 c0,0.121-0.041,0.43-0.124,0.921l-0.184,1.474c-0.083,0.08-0.184,0.121-0.306,0.121c-1.229,0-2.048-0.306-2.455-0.919 c-0.411-0.614-0.575-1.476-0.493-2.58l0.493-7.366c0-0.121,0.038-0.285,0.121-0.492c0.082-0.203,0.123-0.348,0.123-0.428 c0-0.328-0.348-0.984-1.043-1.967c-0.123-0.039-0.758-0.184-1.904-0.43c-0.695-0.163-2.067-0.45-4.112-0.858 c-2.824-0.53-4.237-2.803-4.237-6.815c0-5.977,2.456-10.948,7.367-14.918c0.204,1.105,0.553,2.576,1.044,4.418 c0.369,0.086,1.168,0.27,2.396,0.555c0.247,0.081,1.494,0.533,3.745,1.352c-1.146-0.695-2.64-1.82-4.48-3.377 c-0.697-0.818-1.046-2.189-1.046-4.113c0-0.45,0.778-0.981,2.335-1.599c1.391-0.571,2.434-0.897,3.131-0.979 c2.209-0.286,3.907-0.432,5.096-0.432c5.115,0,9.249,1.312,12.4,3.932c-1.022,1.188-2.783,2.453-5.279,3.807 c0.982,0.041,2.415-0.348,4.299-1.168c1.882-0.816,2.68-1.227,2.394-1.227c0.327,0,0.982,0.654,1.965,1.963 c0.735,0.982,1.329,1.865,1.78,2.641c1.31,2.333,2.19,4.852,2.642,7.553c0,0.941,0.019,1.616,0.061,2.024v0.489H-366.743z M-390.259,134.219c0-1.761-0.767-3.429-2.302-5.006c-1.535-1.576-3.184-2.363-4.943-2.363c-1.555,0-2.925,0.66-4.113,1.978 c-1.187,1.319-1.779,2.782-1.779,4.389c0,1.401,0.674,2.31,2.026,2.72c0.86,0.248,2.065,0.392,3.621,0.434h3.376 C-391.631,136.407-390.259,135.689-390.259,134.219z M-383.566,141.831v-1.901c-0.286-0.533-0.573-1.087-0.858-1.66 c-0.246-0.817-0.697-1.963-1.352-3.439l-0.676,7.186c0,0.574-0.121,0.859-0.368,0.859c-0.163,0-0.287-0.04-0.369-0.122 c-0.286-4.339-0.429-6.224-0.429-5.647v-2.148c-0.083-0.126-0.185-0.188-0.308-0.188c-1.391,1.437-2.086,3.748-2.086,6.938 c0,1.761,0.162,2.845,0.489,3.257c0.328-0.083,0.695-0.226,1.106-0.431c0.163-0.083,0.634-0.123,1.412-0.123 c0.775,0,1.719,0.246,2.823,0.735C-383.771,145.146-383.566,144.042-383.566,141.831z M-369.69,133.275 c0-1.646-0.614-3.118-1.843-4.418c-1.229-1.297-2.64-1.945-4.234-1.945c-1.72,0-3.328,0.787-4.82,2.363 c-1.495,1.574-2.242,3.223-2.242,4.942c0,1.433,0.697,2.148,2.088,2.148h7.06C-371.021,136.325-369.69,135.297-369.69,133.275z"></path>
    <path fill="#0D0F0F" d="M-330.481,172.618c0,0.758-0.293,1.437-0.879,2.043c-0.586,0.604-1.258,0.905-2.016,0.905 c-1.207,0-2.098-0.566-2.663-1.701l-2.667-0.112c-0.567,0-1.684,0.246-3.345,0.737c-1.777,0.49-2.798,0.888-3.064,1.189 c-0.414,0.454-0.755,1.514-1.02,3.178c-0.228,1.36-0.339,2.363-0.339,3.006c0,1.02,0.16,1.768,0.48,2.24 c0.321,0.473,0.984,0.869,1.984,1.189c1,0.318,1.616,0.502,1.844,0.539c0.151,0,0.396-0.018,0.737-0.057h0.681 c0.491,0,1.001,0.076,1.532,0.227c0.755,0.227,1.077,0.527,0.965,0.907c-0.531-0.074-1.456,0.038-2.778,0.34l1.586,0.795 c0,0.454-0.643,0.679-1.928,0.679c-0.342,0-0.806-0.072-1.39-0.225c-0.588-0.154-0.976-0.229-1.163-0.229h-0.737 c-0.038,0.379-0.15,0.943-0.34,1.701c-0.646-0.037-1.399-0.416-2.27-1.133c-0.87-0.72-1.418-1.079-1.643-1.079 c-0.228,0-0.551,0.359-0.965,1.079c-0.417,0.717-0.624,1.207-0.624,1.475c-0.491-0.268-0.906-0.758-1.249-1.475 c-0.151-0.494-0.321-0.986-0.509-1.479c-0.379,0.039-1.077,0.836-2.099,2.385h-0.284c-0.077-0.113-0.36-0.906-0.852-2.385 c-1.172-0.375-2.268-0.563-3.288-0.563c-0.491,0-1.249,0.112-2.27,0.341l-1.587-0.113c0.226-0.228,0.888-0.662,1.984-1.305 c1.284-0.758,2.269-1.137,2.949-1.137c0.112,0,0.264,0.021,0.454,0.059c0.188,0.039,0.341,0.058,0.454,0.058 c0.262,0,0.689-0.142,1.275-0.427c0.586-0.283,0.927-0.539,1.019-0.766c0.098-0.229,0.145-0.813,0.145-1.759 c0-2.153-0.568-3.763-1.703-4.819c-0.983-0.945-2.608-1.625-4.877-2.043c-0.604,2.154-2.307,3.234-5.103,3.234 c-0.909,0-1.816-0.549-2.723-1.646c-0.907-1.098-1.361-2.099-1.361-3.007c0-1.399,0.586-2.551,1.758-3.459 c-0.944-0.981-1.418-1.983-1.418-3.006c0-0.944,0.292-1.776,0.879-2.496c0.586-0.716,1.353-1.133,2.297-1.248 c-0.074-1.208,0.321-2.042,1.19-2.495c-0.415-0.414-0.622-1.15-0.622-2.211c0-1.246,0.414-2.287,1.247-3.119 c0.83-0.83,1.871-1.248,3.117-1.248c1.363,0,2.479,0.475,3.348,1.418c1.098-3.742,3.459-5.613,7.089-5.613 c1.889,0,3.554,0.756,4.99,2.27c0.53,0.565,0.793,0.868,0.793,0.905c-0.452,0-0.225-0.086,0.681-0.254 c0.909-0.171,1.568-0.257,1.986-0.257c1.474,0,2.778,0.55,3.915,1.646c0.982,0.984,1.663,2.229,2.042,3.742 c0.263,0.039,0.679,0.151,1.245,0.341c0.832,0.417,1.249,1.135,1.249,2.155c0,0.188-0.152,0.549-0.454,1.079 c2.419,1.361,3.63,3.251,3.63,5.67c0,0.681-0.266,1.627-0.793,2.836C-330.973,170.689-330.481,171.521-330.481,172.618z M-353.849,175.113v-0.736c0-0.869-0.424-1.664-1.275-2.382c-0.851-0.72-1.71-1.077-2.58-1.077c-1.06,0-2.042,0.246-2.949,0.734 C-358.649,171.542-356.382,172.693-353.849,175.113z M-354.869,168.083c-0.566-0.646-1.058-1.306-1.474-1.985 c-1.589,0.414-2.383,0.889-2.383,1.416c0.453-0.037,1.116,0.047,1.984,0.256C-355.872,167.979-355.246,168.083-354.869,168.083z M-351.407,166.322v-2.495c-0.909-0.149-1.459-0.226-1.646-0.226v0.851L-351.407,166.322z M-344.035,164.736 c-0.454-0.189-1.305-0.568-2.554-1.135v4.877C-344.811,167.456-343.961,166.21-344.035,164.736z M-340.919,171.428l-1.246-1.529 c-0.755,0.529-1.521,1.066-2.298,1.615c-0.775,0.547-1.445,1.162-2.011,1.844C-344.775,172.447-342.92,171.807-340.919,171.428z"></path>
</svg>
