<svg viewBox="-525 105.001 100 99.999" xmlns="http://www.w3.org/2000/svg">
    <g>
        <path fill="#E49977" d="M-439.651,119.637c9.052,9.051,14.651,21.551,14.651,35.36c0,27.616-22.387,50.003-50,50.003 c-13.807,0-26.305-5.596-35.354-14.646"></path>
        <path fill="#BAB1AB" d="M-510.354,190.354c-9.049-9.047-14.646-21.549-14.646-35.356c0-27.613,22.387-49.997,50-49.997 c13.802,0,26.301,5.594,35.349,14.637"></path>
    </g>
    <path fill="#0D0F0F" d="M-436.7,179.439c-1.718,4.1-5.13,6.146-10.24,6.146c-0.937,0-1.952,0.115-3.044,0.35 c-1.639,0.353-2.458,0.84-2.458,1.465c0,0.195,0.136,0.418,0.41,0.674c0.271,0.253,0.508,0.381,0.703,0.381 c-0.977,0-0.314,0.029,1.987,0.085c2.303,0.06,3.747,0.089,4.333,0.089c-3.394,1.989-9.07,2.906-17.029,2.75 c-2.614-0.037-4.857-1.188-6.729-3.451c-1.835-2.146-2.751-4.545-2.751-7.197c0-2.81,0.946-5.198,2.839-7.17 c1.89-1.968,4.242-2.953,7.051-2.953c0.623,0,1.453,0.137,2.486,0.408c1.034,0.273,1.727,0.41,2.077,0.41 c1.444,0,3.239-0.597,5.385-1.785c2.146-1.189,3.16-1.785,3.043-1.785c-0.391,4.097-1.756,6.849-4.097,8.25 c-1.678,0.978-2.516,1.934-2.516,2.867c0,0.586,0.35,1.055,1.052,1.406c0.546,0.271,1.151,0.408,1.815,0.408 c1.014,0,2.008-0.623,2.984-1.872c0.974-1.247,1.403-2.379,1.286-3.394c-0.116-1.172-0.037-2.576,0.235-4.213 c0.077-0.47,0.361-1.045,0.848-1.727c0.488-0.684,0.928-1.104,1.317-1.262c0,0.354-0.127,0.939-0.38,1.756 c-0.254,0.82-0.38,1.427-0.38,1.814c0,0.86,0.234,1.523,0.703,1.99c0.701-0.271,1.324-1.15,1.872-2.634 c0.468-1.13,0.74-2.224,0.82-3.274c-1.64-0.078-3.211-0.82-4.711-2.227c-1.501-1.404-2.252-2.925-2.252-4.563 c0-0.271,0.037-0.547,0.117-0.819c0.232,0.353,0.583,0.899,1.053,1.64c0.662,0.975,1.17,1.463,1.521,1.463 c0.468,0,0.702-0.488,0.702-1.463c0-1.249-0.332-2.38-0.995-3.395c-0.743-1.211-1.699-1.814-2.867-1.814 c-0.548,0-1.366,0.292-2.458,0.878c-1.093,0.584-2.088,0.878-2.983,0.878c-0.273,0-1.484-0.353-3.629-1.054 c3.783-0.625,5.676-1.19,5.676-1.699c0-1.325-2.594-2.223-7.783-2.688c-0.508-0.039-1.443-0.117-2.809-0.235 c0.155-0.194,1.268-0.407,3.336-0.644c1.755-0.192,2.983-0.293,3.685-0.293c9.285,0,15.175,4.506,17.673,13.521 c0.431-0.358,0.646-0.95,0.646-1.78c0-1.068-0.313-2.412-0.938-4.033c-0.235-0.635-0.607-1.584-1.113-2.849 c3.198,4.075,4.8,7.938,4.8,11.583c0,1.922-0.451,3.667-1.348,5.232c-0.583,1.059-1.678,2.41-3.276,4.059 c-1.6,1.645-2.691,2.919-3.277,3.821c2.146-0.586,3.551-1.035,4.214-1.347c1.481-0.664,2.828-1.66,4.037-2.985 C-436.057,177.668-436.272,178.43-436.7,179.439z M-462.214,156.443c0,0.701-0.391,1.152-1.17,1.348l-1.521,0.232 c-0.547,0.272-1.347,1.348-2.398,3.219c-0.119-0.584-0.293-1.403-0.528-2.457c-0.351,0.037-0.935,0.352-1.755,0.936 c-0.351,0.273-0.917,0.684-1.699,1.229c0.235-1.403,1.017-2.826,2.342-4.271c1.404-1.598,2.77-2.396,4.096-2.396 C-463.092,154.281-462.214,155.002-462.214,156.443z M-452.032,161.828c0,0.662-0.361,1.22-1.083,1.668 c-0.722,0.447-1.434,0.673-2.135,0.673c-0.938,0-1.777-0.524-2.517-1.581c-0.898-1.285-1.814-2.125-2.75-2.516 c0.194-0.195,0.429-0.293,0.704-0.293c0.349,0,0.944,0.271,1.783,0.818c0.837,0.549,1.375,0.82,1.61,0.82 c0.195,0,0.516-0.271,0.964-0.82c0.448-0.547,0.946-0.818,1.493-0.818C-452.675,159.779-452.032,160.463-452.032,161.828z"></path>
    <path fill="#0D0F0F" d="M-471.743,133.111c0,2.701-0.982,4.543-2.948,5.525c-0.574,0.287-2.373,0.678-5.403,1.166 c-1.964,0.329-2.946,1.088-2.946,2.271v4.973c0,0.209,0.063,0.842,0.184,1.906l0.185,1.965c0,0.613-0.144,1.617-0.431,3.008 c-0.777,0.163-1.678,0.348-2.7,0.555c-0.329-1.229-0.491-2.069-0.491-2.52c0-0.203,0.05-0.512,0.152-0.921 c0.102-0.408,0.154-0.716,0.154-0.921c0-0.284-0.253-1.084-0.762-2.393h-0.953c-0.126,0.203-0.167,0.469-0.127,0.795 c0.165,0.696,0.225,1.289,0.185,1.781c-0.697,0.491-1.657,1.146-2.885,1.965c-0.289-0.082-0.389-0.123-0.308-0.123v-4.359 c-0.082-0.202-0.286-0.285-0.614-0.245h-0.737l-0.737,5.771c-0.573,0.041-1.268,0.041-2.086,0c-0.287-1.35-0.799-3.354-1.534-6.015 h-0.493c-0.45,1.433-0.696,2.21-0.737,2.333c0,0.163,0.052,0.48,0.155,0.951c0.101,0.471,0.152,0.787,0.152,0.951 c0,0.121-0.042,0.43-0.125,0.921l-0.183,1.474c-0.083,0.08-0.184,0.121-0.307,0.121c-1.228,0-2.048-0.306-2.455-0.919 c-0.411-0.614-0.576-1.476-0.493-2.58l0.493-7.366c0-0.121,0.039-0.285,0.121-0.492c0.082-0.203,0.123-0.348,0.123-0.428 c0-0.328-0.348-0.984-1.043-1.967c-0.123-0.039-0.758-0.184-1.904-0.43c-0.696-0.163-2.067-0.45-4.112-0.858 c-2.824-0.53-4.237-2.803-4.237-6.815c0-5.977,2.456-10.948,7.367-14.918c0.204,1.105,0.553,2.576,1.044,4.418 c0.368,0.086,1.167,0.27,2.394,0.555c0.247,0.081,1.495,0.533,3.745,1.352c-1.146-0.695-2.64-1.82-4.48-3.377 c-0.697-0.818-1.046-2.189-1.046-4.113c0-0.45,0.778-0.981,2.335-1.599c1.391-0.571,2.434-0.897,3.131-0.979 c2.209-0.286,3.908-0.432,5.096-0.432c5.115,0,9.249,1.312,12.401,3.932c-1.022,1.188-2.783,2.453-5.279,3.807 c0.982,0.041,2.415-0.348,4.298-1.168c1.882-0.816,2.68-1.227,2.394-1.227c0.327,0,0.982,0.654,1.965,1.963 c0.735,0.982,1.329,1.865,1.78,2.641c1.31,2.333,2.19,4.852,2.641,7.553c0,0.941,0.02,1.616,0.061,2.024V133.111z M-495.259,134.219 c0-1.761-0.767-3.429-2.301-5.006c-1.536-1.576-3.184-2.363-4.943-2.363c-1.555,0-2.925,0.66-4.114,1.978 c-1.187,1.319-1.78,2.782-1.78,4.389c0,1.401,0.675,2.31,2.027,2.72c0.859,0.248,2.065,0.392,3.621,0.434h3.376 C-496.631,136.407-495.259,135.689-495.259,134.219z M-488.567,141.831v-1.901c-0.286-0.533-0.573-1.087-0.858-1.66 c-0.246-0.817-0.697-1.963-1.351-3.439l-0.676,7.186c0,0.574-0.121,0.859-0.368,0.859c-0.163,0-0.287-0.04-0.369-0.122 c-0.287-4.339-0.429-6.224-0.429-5.647v-2.148c-0.083-0.126-0.185-0.188-0.308-0.188c-1.391,1.437-2.086,3.748-2.086,6.938 c0,1.761,0.163,2.845,0.49,3.257c0.329-0.083,0.695-0.226,1.107-0.431c0.163-0.083,0.633-0.123,1.412-0.123 c0.775,0,1.719,0.246,2.823,0.735C-488.771,145.146-488.567,144.042-488.567,141.831z M-474.691,133.275 c0-1.646-0.614-3.118-1.842-4.418c-1.229-1.297-2.64-1.945-4.235-1.945c-1.719,0-3.328,0.787-4.821,2.363 c-1.494,1.574-2.242,3.223-2.242,4.942c0,1.433,0.697,2.148,2.088,2.148h7.06C-476.021,136.325-474.691,135.297-474.691,133.275z"></path>
</svg>
