<svg viewBox="0 105 100 100" xmlns="http://www.w3.org/2000/svg">
    <g>
        <path fill="#C1D7E9" d="M85.35,119.637c9.053,9.051,14.65,21.551,14.65,35.36C100,182.613,77.613,205,50,205 c-13.807,0-26.305-5.596-35.354-14.646"></path>
        <path fill="#A3C095" d="M14.646,190.354C5.596,181.307,0,168.805,0,154.997C0,127.384,22.387,105,50,105 c13.803,0,26.301,5.593,35.35,14.637"></path>
    </g>
    <path fill="#0D0F0F" d="M76.723,188.675c-2.693,2.739-6.008,4.109-9.945,4.109c-4.424,0-7.93-1.515-10.524-4.541 c-2.452-2.884-3.678-6.558-3.678-11.028c0-4.804,2.091-10.281,6.272-16.434c3.41-5.047,7.424-9.467,12.036-13.264 c-0.675,3.076-1.009,5.262-1.009,6.561c0,2.98,0.936,5.886,2.811,8.721c2.307,3.365,4.062,5.864,5.262,7.496 c1.873,2.835,2.813,5.6,2.813,8.289C80.759,182.574,79.412,185.938,76.723,188.675z M76.648,173.287 c-0.719-1.609-1.561-2.68-2.521-3.208c0.146,0.288,0.217,0.698,0.217,1.226c0,1.01-0.287,2.453-0.865,4.324l-0.938,2.885 c0,1.68,0.84,2.522,2.521,2.522c1.777,0,2.668-1.177,2.668-3.532C77.73,176.303,77.37,174.896,76.648,173.287z"></path>
    <path fill="#0D0F0F" d="M51.641,139.285c0,0.757-0.293,1.438-0.879,2.043c-0.587,0.604-1.259,0.904-2.017,0.904 c-1.207,0-2.098-0.565-2.663-1.7l-2.666-0.112c-0.568,0-1.685,0.245-3.346,0.736c-1.777,0.49-2.798,0.888-3.064,1.191 c-0.414,0.453-0.755,1.514-1.02,3.176c-0.228,1.361-0.339,2.363-0.339,3.008c0,1.018,0.16,1.767,0.48,2.24 c0.321,0.472,0.984,0.867,1.984,1.188c1.001,0.319,1.616,0.502,1.844,0.538c0.151,0,0.396-0.018,0.737-0.057h0.681 c0.491,0,1.001,0.078,1.532,0.228c0.755,0.226,1.077,0.528,0.965,0.906c-0.531-0.073-1.456,0.038-2.778,0.341l1.586,0.795 c0,0.454-0.643,0.68-1.928,0.68c-0.342,0-0.805-0.074-1.39-0.226c-0.587-0.153-0.975-0.229-1.163-0.229h-0.736 c-0.039,0.379-0.151,0.944-0.341,1.703c-0.645-0.039-1.399-0.418-2.27-1.135c-0.87-0.719-1.418-1.078-1.643-1.078 c-0.228,0-0.551,0.359-0.965,1.078c-0.417,0.717-0.624,1.208-0.624,1.475c-0.491-0.267-0.905-0.758-1.249-1.475 c-0.151-0.494-0.321-0.984-0.509-1.477c-0.379,0.037-1.077,0.834-2.099,2.384h-0.284c-0.076-0.114-0.36-0.907-0.852-2.384 c-1.172-0.377-2.268-0.565-3.288-0.565c-0.491,0-1.249,0.112-2.27,0.341l-1.586-0.111c0.225-0.229,0.888-0.664,1.983-1.307 c1.284-0.758,2.269-1.136,2.949-1.136c0.112,0,0.264,0.021,0.454,0.058c0.188,0.041,0.341,0.059,0.454,0.059 c0.263,0,0.689-0.143,1.275-0.428c0.586-0.283,0.927-0.537,1.019-0.765c0.098-0.229,0.146-0.813,0.146-1.759 c0-2.154-0.568-3.762-1.703-4.821c-0.983-0.942-2.608-1.624-4.877-2.042c-0.604,2.154-2.307,3.234-5.103,3.234 c-0.909,0-1.815-0.547-2.723-1.645c-0.905-1.1-1.361-2.1-1.361-3.008c0-1.4,0.586-2.551,1.758-3.46 c-0.944-0.981-1.418-1.983-1.418-3.005c0-0.945,0.292-1.777,0.879-2.496c0.586-0.716,1.353-1.134,2.297-1.249 c-0.074-1.207,0.321-2.042,1.191-2.494c-0.416-0.415-0.623-1.151-0.623-2.211c0-1.247,0.414-2.286,1.247-3.118 c0.83-0.832,1.872-1.25,3.117-1.25c1.363,0,2.479,0.475,3.348,1.418c1.098-3.742,3.459-5.613,7.089-5.613 c1.89,0,3.554,0.757,4.99,2.271c0.53,0.563,0.793,0.868,0.793,0.905c-0.452,0-0.225-0.086,0.681-0.256 c0.909-0.17,1.568-0.256,1.986-0.256c1.474,0,2.778,0.55,3.915,1.646c0.982,0.984,1.663,2.229,2.042,3.742 c0.263,0.038,0.679,0.15,1.246,0.34c0.831,0.418,1.248,1.135,1.248,2.156c0,0.189-0.152,0.549-0.454,1.078 c2.419,1.361,3.63,3.25,3.63,5.67c0,0.681-0.266,1.628-0.793,2.837C51.148,137.355,51.641,138.188,51.641,139.285z M28.273,141.781 v-0.737c0-0.87-0.425-1.664-1.276-2.382c-0.851-0.721-1.71-1.077-2.58-1.077c-1.06,0-2.042,0.245-2.949,0.735 C23.472,138.209,25.74,139.359,28.273,141.781z M27.252,134.75c-0.566-0.646-1.058-1.307-1.474-1.986 c-1.589,0.416-2.382,0.889-2.382,1.416c0.452-0.037,1.115,0.049,1.983,0.256C26.249,134.646,26.875,134.75,27.252,134.75z M30.715,132.99v-2.496c-0.91-0.15-1.459-0.227-1.646-0.227v0.851L30.715,132.99z M38.086,131.402 c-0.454-0.189-1.305-0.567-2.554-1.135v4.877C37.311,134.122,38.16,132.876,38.086,131.402z M41.202,138.094l-1.246-1.529 c-0.755,0.529-1.521,1.067-2.298,1.615c-0.775,0.547-1.445,1.163-2.011,1.844C37.346,139.113,39.201,138.473,41.202,138.094z"></path>
</svg>
