<svg viewBox="-210 105.001 100 99.999" xmlns="http://www.w3.org/2000/svg">
    <g>
        <path fill="#A3C095" d="M-124.651,119.637c9.053,9.051,14.651,21.551,14.651,35.36c0,27.616-22.387,50.003-50,50.003 c-13.807,0-26.305-5.596-35.354-14.646"></path>
        <path fill="#E49977" d="M-195.354,190.354c-9.05-9.047-14.646-21.549-14.646-35.356c0-27.613,22.387-49.997,50-49.997 c13.802,0,26.301,5.594,35.349,14.637"></path>
    </g>
    <path fill="#0D0F0F" d="M-158.063,143.077c-1.718,4.099-5.13,6.146-10.24,6.146c-0.937,0-1.952,0.115-3.044,0.35 c-1.639,0.353-2.457,0.841-2.457,1.465c0,0.195,0.136,0.418,0.409,0.674c0.272,0.253,0.508,0.38,0.703,0.38 c-0.977,0-0.313,0.03,1.987,0.086c2.302,0.06,3.746,0.089,4.332,0.089c-3.395,1.988-9.07,2.906-17.029,2.75 c-2.614-0.037-4.857-1.188-6.729-3.451c-1.834-2.146-2.75-4.545-2.75-7.196c0-2.81,0.945-5.199,2.839-7.171 c1.89-1.967,4.242-2.953,7.051-2.953c0.623,0,1.453,0.137,2.486,0.408c1.034,0.273,1.727,0.41,2.077,0.41 c1.444,0,3.238-0.597,5.384-1.785c2.146-1.19,3.161-1.785,3.044-1.785c-0.391,4.096-1.756,6.848-4.097,8.251 c-1.679,0.978-2.516,1.933-2.516,2.866c0,0.586,0.349,1.055,1.052,1.406c0.546,0.271,1.151,0.408,1.815,0.408 c1.014,0,2.008-0.623,2.984-1.871c0.974-1.248,1.403-2.38,1.286-3.396c-0.115-1.171-0.037-2.576,0.235-4.212 c0.077-0.471,0.361-1.045,0.848-1.727c0.488-0.684,0.928-1.104,1.317-1.261c0,0.353-0.128,0.938-0.381,1.755 c-0.254,0.819-0.38,1.428-0.38,1.814c0,0.859,0.233,1.522,0.702,1.99c0.702-0.271,1.325-1.15,1.872-2.634 c0.468-1.131,0.74-2.224,0.82-3.276c-1.64-0.075-3.211-0.818-4.712-2.225c-1.502-1.404-2.252-2.926-2.252-4.563 c0-0.272,0.037-0.547,0.117-0.819c0.232,0.353,0.583,0.899,1.054,1.64c0.661,0.973,1.17,1.461,1.521,1.461 c0.468,0,0.701-0.488,0.701-1.461c0-1.248-0.331-2.379-0.994-3.395c-0.742-1.211-1.698-1.814-2.867-1.814 c-0.548,0-1.366,0.293-2.458,0.879c-1.093,0.584-2.088,0.877-2.982,0.877c-0.274,0-1.484-0.354-3.63-1.055 c3.783-0.624,5.676-1.189,5.676-1.697c0-1.326-2.594-2.224-7.783-2.69c-0.507-0.038-1.442-0.116-2.808-0.235 c0.155-0.193,1.268-0.408,3.336-0.644c1.755-0.192,2.983-0.294,3.685-0.294c9.285,0,15.175,4.508,17.673,13.521 c0.431-0.357,0.646-0.949,0.646-1.779c0-1.069-0.313-2.414-0.937-4.035c-0.235-0.633-0.607-1.584-1.113-2.848 c3.197,4.075,4.8,7.938,4.8,11.584c0,1.92-0.451,3.666-1.348,5.23c-0.583,1.061-1.678,2.412-3.276,4.059 c-1.599,1.646-2.691,2.92-3.277,3.822c2.146-0.586,3.552-1.036,4.215-1.348c1.48-0.663,2.827-1.659,4.036-2.984 C-157.421,141.305-157.636,142.064-158.063,143.077z M-183.578,120.08c0,0.702-0.391,1.15-1.17,1.348l-1.521,0.233 c-0.548,0.271-1.347,1.346-2.398,3.218c-0.118-0.584-0.293-1.404-0.528-2.458c-0.351,0.039-0.936,0.353-1.755,0.937 c-0.351,0.272-0.917,0.684-1.698,1.229c0.235-1.404,1.017-2.826,2.342-4.271c1.404-1.599,2.771-2.396,4.096-2.396 C-184.455,117.917-183.578,118.639-183.578,120.08z M-173.396,125.465c0,0.661-0.36,1.221-1.083,1.668 c-0.722,0.448-1.434,0.674-2.135,0.674c-0.938,0-1.777-0.525-2.517-1.582c-0.898-1.285-1.814-2.125-2.751-2.516 c0.193-0.195,0.429-0.293,0.704-0.293c0.35,0,0.944,0.271,1.783,0.818c0.837,0.549,1.374,0.82,1.609,0.82 c0.195,0,0.517-0.271,0.965-0.82c0.448-0.547,0.945-0.818,1.493-0.818C-174.039,123.416-173.396,124.1-173.396,125.465z"></path>
    <path fill="#0D0F0F" d="M-120.481,172.618c0,0.758-0.293,1.437-0.879,2.043c-0.586,0.604-1.258,0.905-2.016,0.905 c-1.207,0-2.098-0.566-2.663-1.701l-2.667-0.112c-0.567,0-1.684,0.246-3.345,0.737c-1.777,0.49-2.798,0.888-3.063,1.189 c-0.414,0.454-0.755,1.514-1.021,3.178c-0.228,1.36-0.339,2.363-0.339,3.006c0,1.02,0.16,1.768,0.48,2.24 c0.321,0.473,0.984,0.869,1.984,1.189c1,0.318,1.616,0.502,1.844,0.539c0.151,0,0.396-0.018,0.737-0.057h0.681 c0.491,0,1.001,0.076,1.532,0.227c0.755,0.227,1.077,0.527,0.965,0.907c-0.531-0.074-1.456,0.038-2.778,0.34l1.586,0.795 c0,0.454-0.643,0.679-1.928,0.679c-0.342,0-0.806-0.072-1.39-0.225c-0.588-0.154-0.976-0.229-1.163-0.229h-0.737 c-0.038,0.379-0.15,0.943-0.34,1.701c-0.646-0.037-1.399-0.416-2.27-1.133c-0.87-0.72-1.418-1.079-1.643-1.079 c-0.228,0-0.551,0.359-0.965,1.079c-0.417,0.717-0.624,1.207-0.624,1.475c-0.491-0.268-0.906-0.758-1.249-1.475 c-0.151-0.494-0.321-0.986-0.509-1.479c-0.379,0.039-1.077,0.836-2.099,2.385h-0.284c-0.077-0.113-0.36-0.906-0.852-2.385 c-1.172-0.375-2.268-0.563-3.288-0.563c-0.491,0-1.249,0.112-2.27,0.341l-1.587-0.113c0.226-0.228,0.888-0.662,1.984-1.305 c1.284-0.758,2.269-1.137,2.949-1.137c0.112,0,0.264,0.021,0.454,0.059c0.188,0.039,0.341,0.058,0.454,0.058 c0.262,0,0.689-0.142,1.275-0.427c0.586-0.283,0.927-0.539,1.019-0.766c0.098-0.229,0.145-0.813,0.145-1.759 c0-2.153-0.568-3.763-1.703-4.819c-0.983-0.945-2.608-1.625-4.877-2.043c-0.604,2.154-2.307,3.234-5.103,3.234 c-0.909,0-1.816-0.549-2.723-1.646s-1.361-2.099-1.361-3.007c0-1.399,0.586-2.551,1.758-3.459c-0.944-0.981-1.418-1.983-1.418-3.006 c0-0.944,0.292-1.776,0.879-2.496c0.586-0.716,1.353-1.133,2.297-1.248c-0.074-1.208,0.321-2.042,1.19-2.495 c-0.415-0.414-0.622-1.15-0.622-2.211c0-1.246,0.414-2.287,1.247-3.119c0.83-0.83,1.871-1.248,3.117-1.248 c1.363,0,2.479,0.475,3.348,1.418c1.098-3.742,3.459-5.613,7.089-5.613c1.889,0,3.554,0.756,4.99,2.27 c0.53,0.565,0.793,0.868,0.793,0.905c-0.452,0-0.225-0.086,0.681-0.254c0.909-0.171,1.568-0.257,1.986-0.257 c1.474,0,2.778,0.55,3.915,1.646c0.982,0.984,1.663,2.229,2.042,3.742c0.263,0.039,0.679,0.151,1.245,0.341 c0.832,0.417,1.249,1.135,1.249,2.155c0,0.188-0.152,0.549-0.454,1.079c2.419,1.361,3.63,3.251,3.63,5.67 c0,0.681-0.266,1.627-0.793,2.836C-120.973,170.689-120.481,171.521-120.481,172.618z M-143.849,175.113v-0.736 c0-0.869-0.424-1.664-1.275-2.382c-0.851-0.72-1.71-1.077-2.58-1.077c-1.06,0-2.042,0.246-2.949,0.734 C-148.649,171.542-146.382,172.693-143.849,175.113z M-144.869,168.083c-0.566-0.646-1.058-1.306-1.474-1.985 c-1.589,0.414-2.383,0.889-2.383,1.416c0.453-0.037,1.116,0.047,1.984,0.256C-145.872,167.979-145.246,168.083-144.869,168.083z M-141.407,166.322v-2.495c-0.909-0.149-1.459-0.226-1.646-0.226v0.851L-141.407,166.322z M-134.035,164.736 c-0.454-0.189-1.305-0.568-2.554-1.135v4.877C-134.811,167.456-133.961,166.21-134.035,164.736z M-130.919,171.428l-1.246-1.529 c-0.755,0.529-1.521,1.066-2.298,1.615c-0.775,0.547-1.445,1.162-2.011,1.844C-134.775,172.447-132.92,171.807-130.919,171.428z"></path>
</svg>
