<svg viewBox="-315 105.001 100 99.999" xmlns="http://www.w3.org/2000/svg">
    <g>
        <path fill="#F8F6D8" d="M-229.651,119.637c9.053,9.051,14.651,21.551,14.651,35.36c0,27.616-22.387,50.003-50,50.003 c-13.807,0-26.305-5.596-35.354-14.646"></path>
        <path fill="#E49977" d="M-300.354,190.354c-9.05-9.047-14.646-21.549-14.646-35.356c0-27.613,22.387-49.997,50-49.997 c13.802,0,26.301,5.594,35.349,14.637"></path>
    </g>
    <path fill="#0D0F0F" d="M-227,178.111c-2.436-2.264-4.054-3.491-4.848-3.682c-0.576-0.138-1.135,0.198-1.672,1.006 s-1.291,1.092-2.268,0.858c-0.396-0.095-1.175-0.435-2.334-1.017c-0.938,0.885-1.441,1.471-1.511,1.758 c-0.095,0.398,0.089,0.938,0.551,1.621c0.46,0.685,0.894,1.072,1.301,1.171c0.257,0.062,0.621,0.091,1.09,0.089 c0.468-0.001,0.777,0.016,0.927,0.051c0.443,0.104,0.469,0.971,0.078,2.598c-0.37,1.552-1.302,3.852-2.793,6.892 c-0.059-3.909-0.61-5.989-1.656-6.239c-0.145-0.035-0.469,0.004-0.972,0.111c-0.505,0.107-0.864,0.137-1.08,0.085 c-1.048-0.251-1.758-1.433-2.131-3.546c-1.723-0.145-2.757,0.506-3.103,1.949c-0.174,0.726,0.023,1.383,0.589,1.976 c0.563,0.592,0.823,0.979,0.782,1.16c-0.233,0.978-2.021,2.133-5.355,3.473c-1.776,0.722-3.007,1.228-3.688,1.522 c0.659-0.528,1.369-1.256,2.127-2.182c0.862-1.057,1.371-1.906,1.528-2.559c0.086-0.359-0.209-0.966-0.884-1.814 c-0.676-0.849-0.926-1.634-0.753-2.355c0.146-0.614,0.543-1.319,1.194-2.12c-0.341-0.653-0.835-1.06-1.485-1.215 c-1.444-0.347-2.279-0.05-2.504,0.891c0.155-0.651,0.038-0.163-0.35,1.462c-0.25,1.2-1.296,1.58-3.138,1.141 c-1.409-0.338-3.696-1.229-6.864-2.674c3.981-0.039,6.118-0.674,6.411-1.901c-0.032,0.146-0.003-0.308,0.097-1.353 c0.122-1.154,1.16-1.977,3.108-2.465c0.072-1.738-0.594-2.777-2.004-3.113c-0.216-0.053-0.705,0.231-1.463,0.853 c-0.761,0.619-1.393,0.87-1.898,0.748c-0.867-0.205-1.763-1.413-2.684-3.62c-0.427-1.095-1.088-2.723-1.983-4.885 c0.727,0.632,1.453,1.266,2.182,1.896c0.963,0.766,1.77,1.226,2.419,1.383c0.506,0.119,1.108-0.205,1.808-0.974 c0.699-0.768,1.446-1.058,2.24-0.866c0.111,0.026,0.78,0.414,2.013,1.168c0.937-0.883,1.466-1.576,1.588-2.082 c0.102-0.435-0.04-0.994-0.431-1.679c-0.39-0.687-0.802-1.079-1.235-1.184c-0.181-0.044-0.473-0.058-0.878-0.039 c-0.405,0.019-0.698,0.005-0.879-0.038c-0.649-0.155-0.781-1.045-0.392-2.671c0.102-0.435,1.11-2.81,3.022-7.123 c-0.166,0.53-0.173,1.601-0.021,3.202c0.181,1.953,0.687,3.027,1.518,3.228c0.144,0.033,0.459-0.005,0.946-0.118 c0.485-0.113,0.852-0.14,1.104-0.078c0.83,0.197,1.404,0.832,1.723,1.9l0.463,1.655c0.758,0.183,1.455,0.063,2.09-0.357 c0.636-0.421,1.046-1.011,1.227-1.769c0.189-0.795,0-1.479-0.568-2.055c-0.569-0.576-0.829-0.972-0.775-1.188 c0.181-0.758,1.68-1.755,4.495-2.99c2.26-0.985,3.709-1.536,4.349-1.651c-2.054,1.725-3.199,3.07-3.432,4.047 c-0.121,0.507,0.055,1.121,0.531,1.848c0.595,0.867,0.912,1.459,0.95,1.771c0.161,0.92-0.146,2.047-0.925,3.39 c0.811,0.92,1.47,1.438,1.977,1.562c1.045,0.25,1.699-0.168,1.958-1.25c0.026-0.109,0.063-0.463,0.112-1.063 c0.046-0.6,0.098-0.932,0.151-0.995c0.266-0.472,1.319-0.487,3.161-0.045c1.156,0.276,3.479,1.175,6.973,2.698 c-0.847,0.027-2.116,0.066-3.809,0.121c-1.55,0.086-2.389,0.401-2.519,0.942c-0.06,0.253-0.074,0.708-0.04,1.364 c0.034,0.656,0.017,1.132-0.053,1.421c-0.12,0.506-0.559,0.896-1.312,1.175l-2.155,0.859c0.245,0.898,0.42,1.438,0.531,1.615 c0.259,0.521,0.692,0.854,1.306,1.002c0.434,0.104,0.922-0.18,1.465-0.854c0.542-0.672,1.212-0.913,2.007-0.722 c0.975,0.232,1.861,1.398,2.657,3.499C-228.651,173.917-227.953,175.708-227,178.111z M-238.274,172.092 c0.552-2.313,0.184-4.52-1.108-6.623s-3.094-3.433-5.404-3.986c-2.348-0.561-4.573-0.205-6.671,1.07 c-2.099,1.27-3.448,3.077-4.046,5.416c-0.59,2.303-0.21,4.504,1.141,6.604c1.35,2.098,3.18,3.425,5.493,3.978 c2.454,0.587,4.697,0.274,6.725-0.94C-240.118,176.396-238.828,174.555-238.274,172.092z M-239.089,171.896 c-0.526,2.203-1.703,3.851-3.53,4.939c-1.826,1.09-3.843,1.373-6.044,0.846c-2.131-0.51-3.777-1.687-4.94-3.531 c-1.163-1.844-1.489-3.83-0.979-5.961c0.503-2.096,1.698-3.709,3.592-4.842c1.896-1.13,3.889-1.445,5.984-0.943 c2.094,0.5,3.727,1.693,4.898,3.576C-238.937,167.867-238.596,169.838-239.089,171.896z"></path>
    <path fill="#0D0F0F" d="M-263.063,143.077c-1.718,4.099-5.13,6.146-10.24,6.146c-0.937,0-1.952,0.115-3.044,0.35 c-1.639,0.353-2.457,0.841-2.457,1.465c0,0.195,0.136,0.418,0.409,0.674c0.272,0.253,0.508,0.38,0.703,0.38 c-0.977,0-0.313,0.03,1.987,0.086c2.302,0.06,3.746,0.089,4.332,0.089c-3.395,1.988-9.07,2.906-17.029,2.75 c-2.614-0.037-4.857-1.188-6.729-3.451c-1.834-2.146-2.75-4.545-2.75-7.196c0-2.81,0.945-5.199,2.839-7.171 c1.89-1.967,4.242-2.953,7.051-2.953c0.623,0,1.453,0.137,2.486,0.408c1.034,0.273,1.727,0.41,2.077,0.41 c1.444,0,3.238-0.597,5.384-1.785c2.146-1.19,3.161-1.785,3.044-1.785c-0.391,4.096-1.756,6.848-4.097,8.251 c-1.679,0.978-2.516,1.933-2.516,2.866c0,0.586,0.349,1.055,1.052,1.406c0.546,0.271,1.151,0.408,1.815,0.408 c1.014,0,2.008-0.623,2.984-1.871c0.974-1.248,1.403-2.38,1.286-3.396c-0.115-1.171-0.037-2.576,0.235-4.212 c0.077-0.471,0.361-1.045,0.848-1.727c0.488-0.684,0.928-1.104,1.317-1.261c0,0.353-0.128,0.938-0.381,1.755 c-0.254,0.819-0.38,1.428-0.38,1.814c0,0.859,0.233,1.522,0.702,1.99c0.702-0.271,1.325-1.15,1.872-2.634 c0.468-1.131,0.74-2.224,0.82-3.276c-1.64-0.075-3.211-0.818-4.712-2.225c-1.502-1.404-2.252-2.926-2.252-4.563 c0-0.272,0.037-0.547,0.117-0.819c0.232,0.353,0.583,0.899,1.054,1.64c0.661,0.973,1.17,1.461,1.521,1.461 c0.468,0,0.701-0.488,0.701-1.461c0-1.248-0.331-2.379-0.994-3.395c-0.742-1.211-1.698-1.814-2.867-1.814 c-0.548,0-1.366,0.293-2.458,0.879c-1.093,0.584-2.088,0.877-2.982,0.877c-0.274,0-1.484-0.354-3.63-1.055 c3.783-0.624,5.676-1.189,5.676-1.697c0-1.326-2.594-2.224-7.783-2.69c-0.507-0.038-1.442-0.116-2.808-0.235 c0.155-0.193,1.268-0.408,3.336-0.644c1.755-0.192,2.983-0.294,3.685-0.294c9.285,0,15.175,4.508,17.673,13.521 c0.431-0.357,0.646-0.949,0.646-1.779c0-1.069-0.313-2.414-0.937-4.035c-0.235-0.633-0.607-1.584-1.113-2.848 c3.197,4.075,4.8,7.938,4.8,11.584c0,1.92-0.451,3.666-1.348,5.23c-0.583,1.061-1.678,2.412-3.276,4.059 c-1.599,1.646-2.691,2.92-3.277,3.822c2.146-0.586,3.552-1.036,4.215-1.348c1.48-0.663,2.827-1.659,4.036-2.984 C-262.421,141.305-262.636,142.064-263.063,143.077z M-288.578,120.08c0,0.702-0.391,1.15-1.17,1.348l-1.521,0.233 c-0.548,0.271-1.347,1.346-2.398,3.218c-0.118-0.584-0.293-1.404-0.528-2.458c-0.351,0.039-0.936,0.353-1.755,0.937 c-0.351,0.272-0.917,0.684-1.698,1.229c0.235-1.404,1.017-2.826,2.342-4.271c1.404-1.599,2.771-2.396,4.096-2.396 C-289.455,117.917-288.578,118.639-288.578,120.08z M-278.396,125.465c0,0.661-0.36,1.221-1.083,1.668 c-0.722,0.448-1.434,0.674-2.135,0.674c-0.938,0-1.777-0.525-2.517-1.582c-0.898-1.285-1.814-2.125-2.751-2.516 c0.193-0.195,0.429-0.293,0.704-0.293c0.35,0,0.944,0.271,1.783,0.818c0.837,0.549,1.374,0.82,1.609,0.82 c0.195,0,0.517-0.271,0.965-0.82c0.448-0.547,0.945-0.818,1.493-0.818C-279.039,123.416-278.396,124.1-278.396,125.465z"></path>
</svg>
