<svg viewBox="-630 105.001 100 99.999" xmlns="http://www.w3.org/2000/svg">
    <g>
        <path fill="#E49977" d="M-544.651,119.637c9.052,9.051,14.651,21.551,14.651,35.36c0,27.616-22.387,50.003-50,50.003 c-13.807,0-26.305-5.596-35.354-14.646"></path>
        <path fill="#C1D7E9" d="M-615.354,190.354c-9.049-9.047-14.646-21.549-14.646-35.356c0-27.613,22.387-49.997,50-49.997 c13.802,0,26.301,5.594,35.349,14.637"></path>
    </g>
    <path fill="#0D0F0F" d="M-541.7,179.439c-1.718,4.1-5.13,6.146-10.24,6.146c-0.937,0-1.952,0.115-3.044,0.35 c-1.639,0.353-2.458,0.84-2.458,1.465c0,0.195,0.136,0.418,0.41,0.674c0.272,0.253,0.508,0.381,0.703,0.381 c-0.977,0-0.314,0.029,1.987,0.085c2.303,0.06,3.747,0.089,4.333,0.089c-3.394,1.989-9.07,2.906-17.029,2.75 c-2.614-0.037-4.857-1.188-6.729-3.451c-1.835-2.146-2.751-4.545-2.751-7.197c0-2.81,0.946-5.198,2.839-7.17 c1.89-1.968,4.242-2.953,7.051-2.953c0.623,0,1.453,0.137,2.486,0.408c1.034,0.273,1.727,0.41,2.077,0.41 c1.444,0,3.239-0.597,5.385-1.785c2.146-1.189,3.16-1.785,3.043-1.785c-0.391,4.097-1.756,6.849-4.097,8.25 c-1.678,0.978-2.516,1.934-2.516,2.867c0,0.586,0.35,1.055,1.052,1.406c0.546,0.271,1.151,0.408,1.815,0.408 c1.014,0,2.008-0.623,2.984-1.872c0.974-1.247,1.403-2.379,1.286-3.394c-0.116-1.172-0.037-2.576,0.235-4.213 c0.077-0.47,0.361-1.045,0.848-1.727c0.488-0.684,0.928-1.104,1.317-1.262c0,0.354-0.127,0.939-0.38,1.756 c-0.254,0.82-0.38,1.427-0.38,1.814c0,0.86,0.234,1.523,0.703,1.99c0.701-0.271,1.324-1.15,1.872-2.634 c0.468-1.13,0.74-2.224,0.82-3.274c-1.64-0.078-3.211-0.82-4.711-2.227c-1.501-1.404-2.252-2.925-2.252-4.563 c0-0.271,0.037-0.547,0.117-0.819c0.232,0.353,0.583,0.899,1.053,1.64c0.662,0.975,1.17,1.463,1.521,1.463 c0.468,0,0.702-0.488,0.702-1.463c0-1.249-0.332-2.38-0.995-3.395c-0.743-1.211-1.699-1.814-2.867-1.814 c-0.548,0-1.366,0.292-2.458,0.878c-1.093,0.584-2.088,0.878-2.983,0.878c-0.273,0-1.484-0.353-3.629-1.054 c3.783-0.625,5.676-1.19,5.676-1.699c0-1.325-2.594-2.223-7.783-2.688c-0.508-0.039-1.443-0.117-2.809-0.235 c0.155-0.194,1.268-0.407,3.336-0.644c1.755-0.192,2.983-0.293,3.685-0.293c9.285,0,15.175,4.506,17.673,13.521 c0.431-0.358,0.645-0.95,0.645-1.78c0-1.068-0.312-2.412-0.937-4.033c-0.235-0.635-0.607-1.584-1.113-2.849 c3.198,4.075,4.8,7.938,4.8,11.583c0,1.922-0.451,3.667-1.348,5.232c-0.583,1.059-1.678,2.41-3.276,4.059 c-1.6,1.645-2.691,2.919-3.277,3.821c2.146-0.586,3.551-1.035,4.214-1.347c1.481-0.664,2.828-1.66,4.037-2.985 C-541.057,177.668-541.272,178.43-541.7,179.439z M-567.214,156.443c0,0.701-0.391,1.152-1.17,1.348l-1.521,0.232 c-0.547,0.272-1.347,1.348-2.398,3.219c-0.119-0.584-0.293-1.403-0.528-2.457c-0.351,0.037-0.935,0.352-1.755,0.936 c-0.351,0.273-0.917,0.684-1.699,1.229c0.235-1.403,1.017-2.826,2.342-4.271c1.404-1.598,2.77-2.396,4.096-2.396 C-568.092,154.281-567.214,155.002-567.214,156.443z M-557.032,161.828c0,0.662-0.361,1.22-1.083,1.668 c-0.722,0.447-1.434,0.673-2.135,0.673c-0.938,0-1.777-0.524-2.517-1.581c-0.898-1.285-1.814-2.125-2.75-2.516 c0.194-0.195,0.429-0.293,0.704-0.293c0.349,0,0.944,0.271,1.783,0.818c0.837,0.549,1.375,0.82,1.61,0.82 c0.195,0,0.516-0.271,0.964-0.82c0.448-0.547,0.946-0.818,1.493-0.818C-557.675,159.779-557.032,160.463-557.032,161.828z"></path>
    <path fill="#0D0F0F" d="M-588.884,153.156c-2.693,2.736-6.007,4.107-9.946,4.107c-4.422,0-7.929-1.513-10.524-4.541 c-2.452-2.885-3.677-6.56-3.677-11.027c0-4.805,2.09-10.284,6.272-16.436c3.411-5.044,7.423-9.465,12.037-13.262 c-0.673,3.077-1.009,5.262-1.009,6.559c0,2.98,0.935,5.889,2.811,8.723c2.306,3.363,4.061,5.863,5.262,7.496 c1.874,2.836,2.812,5.6,2.812,8.287C-584.847,147.055-586.194,150.416-588.884,153.156z M-588.956,137.77 c-0.721-1.611-1.561-2.681-2.523-3.211c0.145,0.289,0.216,0.697,0.216,1.228c0,1.01-0.287,2.45-0.864,4.323l-0.938,2.885 c0,1.681,0.841,2.521,2.523,2.521c1.777,0,2.668-1.178,2.668-3.531C-587.875,140.783-588.236,139.378-588.956,137.77z"></path>
</svg>
