<svg viewBox="-840 105.001 100 99.999" xmlns="http://www.w3.org/2000/svg">
    <g>
        <path fill="#BAB1AB" d="M-754.651,119.637c9.052,9.051,14.651,21.551,14.651,35.36c0,27.616-22.386,50.003-50.001,50.003 c-13.806,0-26.305-5.596-35.354-14.646"></path>
        <path fill="#F8F6D8" d="M-825.354,190.354c-9.049-9.047-14.646-21.549-14.646-35.356c0-27.613,22.386-49.997,49.999-49.997 c13.804,0,26.302,5.594,35.35,14.637"></path>
    </g>
    <path fill="#0D0F0F" d="M-750.38,170.99c0,2.701-0.982,4.544-2.947,5.525c-0.574,0.287-2.374,0.678-5.404,1.166 c-1.963,0.33-2.946,1.086-2.946,2.271v4.973c0,0.209,0.063,0.842,0.185,1.905l0.185,1.966c0,0.613-0.144,1.617-0.431,3.008 c-0.777,0.163-1.678,0.348-2.701,0.555c-0.328-1.23-0.491-2.069-0.491-2.52c0-0.203,0.05-0.512,0.153-0.921 c0.102-0.407,0.154-0.716,0.154-0.922c0-0.284-0.253-1.083-0.762-2.394h-0.953c-0.126,0.205-0.167,0.472-0.127,0.797 c0.164,0.697,0.225,1.289,0.186,1.781c-0.697,0.491-1.657,1.146-2.885,1.965c-0.289-0.082-0.389-0.123-0.308-0.123v-4.359 c-0.081-0.203-0.285-0.285-0.614-0.246h-0.737l-0.737,5.771c-0.573,0.041-1.268,0.041-2.086,0c-0.287-1.351-0.799-3.354-1.535-6.017 h-0.493c-0.45,1.433-0.695,2.211-0.737,2.334c0,0.163,0.052,0.479,0.155,0.951c0.102,0.472,0.153,0.787,0.153,0.951 c0,0.122-0.042,0.43-0.125,0.921l-0.184,1.475c-0.083,0.079-0.183,0.12-0.306,0.12c-1.228,0-2.048-0.307-2.455-0.919 c-0.412-0.615-0.576-1.475-0.493-2.58l0.493-7.365c0-0.123,0.039-0.287,0.121-0.492c0.082-0.203,0.123-0.348,0.123-0.428 c0-0.328-0.348-0.984-1.043-1.968c-0.123-0.04-0.757-0.185-1.904-0.431c-0.695-0.162-2.066-0.449-4.112-0.857 c-2.825-0.531-4.238-2.803-4.238-6.814c0-5.978,2.457-10.949,7.367-14.92c0.204,1.106,0.554,2.578,1.045,4.42 c0.368,0.084,1.167,0.269,2.394,0.554c0.247,0.081,1.494,0.532,3.745,1.351c-1.145-0.695-2.64-1.818-4.48-3.375 c-0.697-0.818-1.046-2.19-1.046-4.113c0-0.452,0.778-0.982,2.335-1.6c1.391-0.572,2.434-0.896,3.131-0.979 c2.209-0.286,3.908-0.431,5.096-0.431c5.115,0,9.25,1.311,12.401,3.932c-1.022,1.188-2.783,2.453-5.279,3.806 c0.982,0.041,2.415-0.347,4.298-1.168c1.882-0.815,2.68-1.228,2.394-1.228c0.327,0,0.983,0.656,1.965,1.965 c0.734,0.982,1.329,1.863,1.78,2.64c1.31,2.333,2.19,4.853,2.641,7.552c0,0.942,0.02,1.617,0.061,2.025L-750.38,170.99 L-750.38,170.99z M-773.896,172.098c0-1.761-0.767-3.429-2.301-5.006c-1.536-1.576-3.186-2.363-4.944-2.363 c-1.555,0-2.925,0.66-4.113,1.978c-1.187,1.319-1.78,2.782-1.78,4.39c0,1.4,0.675,2.309,2.026,2.719 c0.86,0.248,2.066,0.392,3.621,0.434h3.377C-775.267,174.285-773.896,173.568-773.896,172.098z M-767.203,179.71v-1.901 c-0.286-0.533-0.573-1.088-0.858-1.66c-0.246-0.817-0.697-1.963-1.351-3.439l-0.676,7.184c0,0.576-0.122,0.861-0.369,0.861 c-0.163,0-0.287-0.04-0.368-0.123c-0.287-4.338-0.429-6.222-0.429-5.646v-2.148c-0.083-0.126-0.185-0.188-0.308-0.188 c-1.391,1.437-2.086,3.748-2.086,6.938c0,1.761,0.163,2.845,0.49,3.257c0.329-0.082,0.695-0.226,1.106-0.431 c0.163-0.083,0.633-0.123,1.411-0.123c0.775,0,1.72,0.245,2.823,0.735C-767.407,183.023-767.203,181.921-767.203,179.71z M-753.327,171.154c0-1.646-0.614-3.119-1.842-4.418c-1.228-1.297-2.64-1.945-4.234-1.945c-1.72,0-3.328,0.787-4.821,2.361 c-1.495,1.576-2.242,3.224-2.242,4.945c0,1.432,0.697,2.147,2.088,2.147h7.059C-754.657,174.204-753.327,173.176-753.327,171.154z"></path>
    <path fill="#0D0F0F" d="M-785.333,143.264c-2.436-2.264-4.054-3.492-4.848-3.682c-0.577-0.139-1.135,0.197-1.672,1.005 s-1.292,1.095-2.268,0.858c-0.397-0.094-1.175-0.432-2.333-1.016c-0.938,0.885-1.441,1.471-1.511,1.758 c-0.095,0.397,0.089,0.938,0.55,1.623c0.46,0.683,0.894,1.07,1.301,1.168c0.257,0.063,0.622,0.092,1.09,0.09 c0.468,0,0.777,0.015,0.926,0.051c0.444,0.105,0.469,0.971,0.079,2.597c-0.37,1.552-1.302,3.853-2.794,6.892 c-0.058-3.908-0.609-5.988-1.655-6.238c-0.145-0.035-0.469,0.003-0.972,0.111c-0.505,0.106-0.864,0.138-1.08,0.086 c-1.048-0.25-1.758-1.434-2.131-3.547c-1.722-0.145-2.757,0.506-3.103,1.949c-0.173,0.725,0.024,1.383,0.589,1.975 c0.564,0.594,0.824,0.981,0.783,1.16c-0.232,0.978-2.021,2.133-5.355,3.474c-1.777,0.723-3.007,1.229-3.688,1.524 c0.659-0.529,1.369-1.258,2.126-2.185c0.862-1.054,1.372-1.905,1.528-2.558c0.086-0.357-0.208-0.965-0.883-1.813 c-0.676-0.851-0.926-1.634-0.753-2.354c0.146-0.616,0.543-1.321,1.193-2.123c-0.34-0.653-0.834-1.059-1.484-1.213 c-1.444-0.348-2.279-0.051-2.504,0.89c0.156-0.649,0.039-0.162-0.349,1.464c-0.25,1.198-1.296,1.578-3.138,1.139 c-1.409-0.336-3.696-1.228-6.864-2.672c3.982-0.041,6.119-0.675,6.412-1.904c-0.033,0.146-0.003-0.307,0.096-1.353 c0.123-1.151,1.16-1.976,3.108-2.464c0.073-1.736-0.593-2.775-2.003-3.111c-0.216-0.055-0.706,0.229-1.463,0.85 c-0.76,0.621-1.393,0.871-1.898,0.75c-0.867-0.207-1.762-1.414-2.684-3.621c-0.426-1.096-1.087-2.723-1.982-4.885 c0.727,0.631,1.453,1.266,2.181,1.896c0.963,0.766,1.77,1.225,2.419,1.382c0.506,0.12,1.108-0.202,1.808-0.973 c0.698-0.767,1.446-1.056,2.24-0.866c0.111,0.025,0.78,0.414,2.012,1.169c0.937-0.882,1.466-1.577,1.588-2.084 c0.102-0.432-0.04-0.991-0.431-1.678c-0.389-0.685-0.802-1.078-1.235-1.185c-0.181-0.043-0.472-0.057-0.877-0.037 c-0.406,0.018-0.699,0.006-0.879-0.039c-0.65-0.155-0.781-1.045-0.392-2.67c0.102-0.436,1.111-2.809,3.022-7.125 c-0.166,0.531-0.173,1.601-0.021,3.205c0.181,1.953,0.687,3.024,1.518,3.226c0.144,0.034,0.459-0.005,0.945-0.119 c0.485-0.112,0.853-0.14,1.105-0.078c0.83,0.2,1.404,0.833,1.722,1.901l0.463,1.656c0.757,0.182,1.455,0.063,2.089-0.357 c0.636-0.421,1.046-1.012,1.227-1.77c0.189-0.793,0-1.479-0.568-2.056c-0.57-0.575-0.829-0.971-0.775-1.188 c0.181-0.758,1.68-1.754,4.495-2.987c2.26-0.987,3.709-1.539,4.349-1.653c-2.054,1.725-3.199,3.07-3.431,4.047 c-0.121,0.506,0.055,1.123,0.531,1.848c0.595,0.867,0.912,1.459,0.95,1.771c0.162,0.92-0.146,2.049-0.924,3.389 c0.811,0.92,1.469,1.439,1.977,1.562c1.044,0.25,1.699-0.167,1.958-1.25c0.027-0.108,0.063-0.462,0.112-1.06 c0.046-0.602,0.098-0.933,0.151-0.998c0.267-0.471,1.32-0.484,3.162-0.045c1.156,0.277,3.479,1.176,6.972,2.699 c-0.846,0.026-2.116,0.065-3.809,0.12c-1.549,0.087-2.388,0.403-2.519,0.945c-0.059,0.252-0.074,0.707-0.04,1.364 c0.034,0.656,0.016,1.131-0.053,1.418c-0.12,0.507-0.558,0.896-1.311,1.176l-2.156,0.859c0.246,0.899,0.42,1.438,0.531,1.615 c0.259,0.521,0.693,0.855,1.307,1.002c0.434,0.104,0.922-0.181,1.465-0.854c0.542-0.672,1.212-0.911,2.006-0.723 c0.975,0.233,1.861,1.399,2.658,3.5C-786.984,139.07-786.286,140.859-785.333,143.264z M-796.608,137.244 c0.552-2.311,0.183-4.521-1.108-6.624c-1.292-2.104-3.094-3.433-5.404-3.983c-2.349-0.564-4.573-0.209-6.671,1.066 c-2.098,1.271-3.448,3.078-4.045,5.417c-0.59,2.303-0.21,4.505,1.141,6.604c1.35,2.096,3.18,3.424,5.493,3.977 c2.455,0.586,4.698,0.273,6.725-0.939C-798.452,141.547-797.162,139.706-796.608,137.244z M-797.422,137.049 c-0.527,2.203-1.703,3.852-3.53,4.939c-1.826,1.092-3.843,1.373-6.044,0.846c-2.131-0.51-3.777-1.688-4.94-3.531 c-1.163-1.843-1.489-3.828-0.979-5.962c0.503-2.095,1.698-3.708,3.592-4.841c1.896-1.129,3.889-1.443,5.983-0.943 c2.094,0.5,3.728,1.693,4.899,3.577C-797.27,133.02-796.929,134.988-797.422,137.049z"></path>
</svg>
